<svg xmlns="http://www.w3.org/2000/svg" data-name="Layer 1" viewBox="0 0 128 160" x="0px" y="0px"><title>environment ecology  planet earth love1</title><g><path d="M77.2534,107.0469A47.5078,47.5078,0,0,1,56,112a47.994,47.994,0,0,1-26.6154-8.07H71a2,2,0,0,0,0-4H24.1848A47.9583,47.9583,0,0,1,8.8329,72.8965H28.4136a6.2984,6.2984,0,0,0,6.3105-6.3106,2.313,2.313,0,0,1,2.3106-2.31H49.9653A8.0333,8.0333,0,0,0,58,56.3086a4.096,4.096,0,0,1,4.0347-4.1016H75.5776a8.2225,8.2225,0,0,0,8.2837-7.7978,8.0329,8.0329,0,0,0-8.0337-8.2715H49.9653a4.0343,4.0343,0,0,1-.0361-8.0684A8.1077,8.1077,0,0,0,58,20.0342v-3.99A48.1932,48.1932,0,0,1,102.9629,54.042a2,2,0,0,0,3.9141-.8242A52.0039,52.0039,0,0,0,4,64a51.412,51.412,0,0,0,.4985,7.1729c.0027.0192.0066.038.0093.0576.0055.0322.0086.0649.0156.0969a51.9353,51.9353,0,0,0,17.5913,32.1179c.042.0361.0855.07.13.1026a52.0177,52.0177,0,0,0,56.7823,7.0849,2,2,0,0,0-1.7735-3.5859ZM54,16.0508v3.9834a4.0977,4.0977,0,0,1-4.1064,4.0351,8.0344,8.0344,0,0,0,.0717,16.0684H75.8276a4.0334,4.0334,0,0,1,4.0357,4.1582,4.1978,4.1978,0,0,1-4.2857,3.9111H62.0347A8.1053,8.1053,0,0,0,54,56.2725a4.0322,4.0322,0,0,1-4.0347,4.0029H37.0347a6.3179,6.3179,0,0,0-6.3106,6.31,2.2973,2.2973,0,0,1-2.3105,2.3106H8.2515A47.98,47.98,0,0,1,54,16.0508Z"/><path d="M56.77,79.9111a2,2,0,1,0-.8789-3.9023,7.9053,7.9053,0,0,0-3.8452,2.1367A8.0323,8.0323,0,0,0,57.72,91.86h2.3a2,2,0,1,0,0-4h-2.3a4.0324,4.0324,0,0,1-2.8472-6.8858A3.9156,3.9156,0,0,1,56.77,79.9111Z"/><path d="M117.896,63.0723A19.5972,19.5972,0,0,0,92,62.042a19.5993,19.5993,0,0,0-25.896,1.03A19.0886,19.0886,0,0,0,60.2969,76.77a20.2759,20.2759,0,0,0,5.8764,14.4453L90.5859,115.627a1.9995,1.9995,0,0,0,2.8282,0l24.4126-24.4122A20.2759,20.2759,0,0,0,123.7031,76.77,19.0886,19.0886,0,0,0,117.896,63.0723Zm-2.8975,25.3144L92,111.3848,69.0015,88.3867a16.2545,16.2545,0,0,1-4.7046-11.58A15.1216,15.1216,0,0,1,68.88,65.9512a15.5671,15.5671,0,0,1,21.7055.2,2,2,0,0,0,2.8282,0,15.5655,15.5655,0,0,1,21.7055-.2,15.1216,15.1216,0,0,1,4.5835,10.8554A16.2545,16.2545,0,0,1,114.9985,88.3867Z"/></g><text x="0" y="143" fill="#000000" font-size="5px" font-weight="bold" font-family="'Helvetica Neue', Helvetica, Arial-Unicode, Arial, Sans-serif">Created by Mutualism</text><text x="0" y="148" fill="#000000" font-size="5px" font-weight="bold" font-family="'Helvetica Neue', Helvetica, Arial-Unicode, Arial, Sans-serif">from the Noun Project</text></svg>