<svg xmlns="http://www.w3.org/2000/svg" data-name="Layer 1" viewBox="0 0 128 160" x="0px" y="0px"><title>planet nature ecology green earth1</title><g><path d="M80.1875,51.0889a2,2,0,1,0-1.6953,3.623A34.3971,34.3971,0,0,1,98.2227,85H90.25a6.375,6.375,0,0,0-6.375,6.375A2.3777,2.3777,0,0,1,81.5,93.75H65.25a6.375,6.375,0,0,0,0,12.75h6.875a2.375,2.375,0,0,1,0,4.75h-30.96a34.2559,34.2559,0,0,1-10.6937-18.5H44a5.1147,5.1147,0,0,0,5.125-5.125A1.1266,1.1266,0,0,1,50.25,86.5h9.375A6.3754,6.3754,0,0,0,66,80.1777,2.4171,2.4171,0,0,1,68.375,77.75h9.8184a6.5146,6.5146,0,0,0,6.5556-6.1895A6.3748,6.3748,0,0,0,78.375,65H59.625a2.375,2.375,0,0,1-.0215-4.75A6.4279,6.4279,0,0,0,66,53.875V49.5a2,2,0,0,0-4,0v4.375a2.4185,2.4185,0,0,1-2.4336,2.375A6.3751,6.3751,0,0,0,59.625,69h18.75a2.3755,2.3755,0,0,1,2.376,2.4492A2.49,2.49,0,0,1,78.1934,73.75H68.375A6.4267,6.4267,0,0,0,62,80.1406,2.374,2.374,0,0,1,59.625,82.5H50.25a5.13,5.13,0,0,0-5.125,5.125,1.1318,1.1318,0,0,1-.3174.79A1.1452,1.1452,0,0,1,44,88.75H29.8893c-.0863-.99-.1393-1.9885-.1393-3A34.4041,34.4041,0,0,1,49.5078,54.7119a2,2,0,1,0-1.6953-3.623,38.25,38.25,0,1,0,32.375,0ZM64,120a34.0319,34.0319,0,0,1-17.3723-4.75H72.125a6.375,6.375,0,0,0,0-12.75H65.25a2.375,2.375,0,1,1,0-4.75H81.5a6.3817,6.3817,0,0,0,6.375-6.375A2.3739,2.3739,0,0,1,90.25,89h7.8417A34.2936,34.2936,0,0,1,64,120Z"/><path d="M55.2,30H62v8.1807A12.0088,12.0088,0,0,0,52,50v.9a2,2,0,0,0,4,0V50a8,8,0,0,1,16,0v.9a2,2,0,0,0,4,0V50A11.9794,11.9794,0,0,0,66,38.1775V34h5.2A12.8146,12.8146,0,0,0,84,21.2V14a2,2,0,0,0-2-2H74.8a12.7543,12.7543,0,0,0-9.1731,3.8926A15.2184,15.2184,0,0,0,50.8,4H42a2,2,0,0,0-2,2v8.8A15.2169,15.2169,0,0,0,55.2,30ZM74.8,16H80v5.2A8.8094,8.8094,0,0,1,71.2,30H66V24.8A8.8094,8.8094,0,0,1,74.8,16ZM44,8h6.8A11.2129,11.2129,0,0,1,62,19.2V26H55.2A11.2129,11.2129,0,0,1,44,14.8Z"/></g><text x="0" y="143" fill="#000000" font-size="5px" font-weight="bold" font-family="'Helvetica Neue', Helvetica, Arial-Unicode, Arial, Sans-serif">Created by Mutualism</text><text x="0" y="148" fill="#000000" font-size="5px" font-weight="bold" font-family="'Helvetica Neue', Helvetica, Arial-Unicode, Arial, Sans-serif">from the Noun Project</text></svg>